# xmcd CD database file
#
# Track frame offsets:
#	150
#	5789
#	30096
#	50471
#	70263
#	73240
#	91312
#	114372
#	121954
#	139136
#	165045
#	191222
#	200647
#	215744
#	239383
#	274705
#
# Disc length: 4153 seconds
#
# Revision: 0
# Processed by: cddbd v1.5PL3 Copyright (c) Steve Scherf et al.
# Submitted via: CDex 1.51
#
DISCID=e7103710
DTITLE=Full Of Harmony - Full Of Harmony
DYEAR=1900
DGENRE=
TTITLE0=Introduction
TTITLE1=Typhoon
TTITLE2=TAKE IT SLOW
TTITLE3=STRONG EMOTION
TTITLE4=Interlude -Welcome to Street Side-
TTITLE5=WHAT YOU WANT
TTITLE6=BE ALRIGHT (Album Version)
TTITLE7=Interlude -After Party-
TTITLE8=BABY
TTITLE9=Destiny
TTITLE10=DAYS
TTITLE11=Interlude -Crazy For You-
TTITLE12=Can You Feel My Love
TTITLE13=IN MY LIFE
TTITLE14=KEEP IT REAL
TTITLE15=date
EXTD=
EXTT0=
EXTT1=
EXTT2=
EXTT3=
EXTT4=
EXTT5=
EXTT6=
EXTT7=
EXTT8=
EXTT9=
EXTT10=
EXTT11=
EXTT12=
EXTT13=
EXTT14=
EXTT15=
PLAYORDER=
